# xmcd
#
# Track frame offsets: 
#        150
#        15759
#        37385
#        56707
#        78889
#        96313
#        113929
#        127761
#        150514
#        172224
#        185800
#        204174
#        221016
#        233649
#        252107
#
# Disc length: 3552 seconds
#
# Revision: 0
# Processed by: cddbd v1.5.2PL0 Copyright (c) Steve Scherf et al.
# Submitted via: ExactAudioCopy v0.99pb5
#
DISCID=c50dde0f
DTITLE=Gipsy Kings - Golden Hits [CD 2)
DYEAR=2003
DGENRE=Country
TTITLE0=Bamboleo
TTITLE1=Medley
TTITLE2=Caminando Por la Calle
TTITLE3=Vamos A Bailar
TTITLE4=No Volvere
TTITLE5=Love And Liberte
TTITLE6=Bem,Bem,Maria
TTITLE7=Camino
TTITLE8=Oy
TTITLE9=Passion
TTITLE10=Moorea
TTITLE11=La Quiero
TTITLE12=Allegria
TTITLE13=Quero Saber
TTITLE14=Soy
EXTD=
EXTT0=
EXTT1=
EXTT2=
EXTT3=
EXTT4=
EXTT5=
EXTT6=
EXTT7=
EXTT8=
EXTT9=
EXTT10=
EXTT11=
EXTT12=
EXTT13=
EXTT14=
PLAYORDER=
